<?xml version="1.0" encoding="utf-8"?>
<!-- Generator: Adobe Illustrator 22.1.0, SVG Export Plug-In . SVG Version: 6.00 Build 0)  -->
<svg version="1.1" id="Layer_1" xmlns="http://www.w3.org/2000/svg" xmlns:xlink="http://www.w3.org/1999/xlink" x="0px" y="0px"
	 viewBox="0 0 512 512" style="enable-background:new 0 0 512 512;" xml:space="preserve">
<style type="text/css">
	.st0{fill:#FCE575;}
	.st1{fill:#FFD551;}
	.st2{fill:#FFA730;}
	.st3{fill:#E58D23;}
	.st4{fill:#FF624B;}
	.st5{fill:#FFF4C1;}
	.st6{fill:#FCDA4F;}
	.st7{fill:#FF4B34;}
	.st8{fill:#CCC033;}
	.st9{fill:#99AF17;}
	.st10{fill:#FF9079;}
	.st11{fill:#EACF32;}
	.st12{fill:#F9BB32;}
	.st13{fill:#FFEA63;}
	.st14{fill:#FFEACF;}
	.st15{fill:#FFD59A;}
	.st16{fill:#FFC34C;}
	.st17{fill:#A56021;}
	.st18{fill:#FFDF74;}
	.st19{fill:#BF6C0D;}
	.st20{fill:#FFB74B;}
	.st21{fill:#8C4C17;}
	.st22{fill:#FCF9DE;}
	.st23{fill:#DB9C2E;}
	.st24{fill:#FFF9DC;}
	.st25{fill:none;}
</style>
<g>
	<g>
		<rect x="247.508" y="179.125" class="st16" width="16.812" height="268.841"/>
	</g>
	<g>
		<rect x="247.508" y="179.125" class="st16" width="16.812" height="268.841"/>
	</g>
	<g>
		<path class="st16" d="M292.149,301.605v-122.48h-16.812v130.48v8.813c0,4.418,3.582,8,8,8h8.812h100.875v-16.813h-92.875
			C295.731,309.605,292.149,306.023,292.149,301.605z"/>
	</g>
	<g>
		
			<rect x="314.758" y="333.773" transform="matrix(-1.836970e-16 1 -1 -1.836970e-16 715.7808 69.4519)" class="st16" width="16.812" height="117.687"/>
	</g>
	<g>
		<path class="st16" d="M219.68,221.156v122.48c0,4.418-3.582,8-8,8h-92.875v16.813H219.68h8.813c4.418,0,8-3.582,8-8v-8.813
			v-130.48H219.68z"/>
	</g>
	<g>
		<circle class="st4" cx="106.807" cy="360.042" r="22.506"/>
	</g>
	<g>
		<circle class="st9" cx="393.127" cy="393.667" r="22.506"/>
	</g>
	<g>
		<circle class="st0" cx="405.193" cy="319.062" r="22.506"/>
	</g>
	<g>
		<circle class="st19" cx="256.525" cy="459.866" r="22.506"/>
	</g>
	<g>
		<path class="st8" d="M276.319,238.804c149.135-13.447,136.714-128.092,129.088-163.915c-1.288-6.049-9.124-8.563-17.281-5.556
			c-49.284,18.168-202.362,83.083-127.087,164.747C264.331,237.651,269.941,239.379,276.319,238.804z"/>
	</g>
	<g>
		<path class="st9" d="M407.173,84.459c-0.567-3.6-1.18-6.819-1.766-9.571c-1.288-6.05-9.124-8.563-17.281-5.556
			c-22.389,8.254-66.196,26.154-100.286,50.889l0,0c0,0,0,0,0,0.001c-0.618,0.447-1.231,0.899-1.842,1.351
			c-0.083,0.061-0.165,0.123-0.247,0.184c-0.532,0.395-1.061,0.792-1.587,1.19c-0.114,0.086-0.227,0.173-0.34,0.259
			c-0.491,0.373-0.981,0.748-1.467,1.125c-0.136,0.105-0.272,0.211-0.407,0.316c-0.465,0.362-0.928,0.724-1.389,1.089
			c-0.141,0.112-0.282,0.223-0.422,0.335c-0.459,0.365-0.916,0.732-1.37,1.1c-0.134,0.108-0.269,0.218-0.403,0.327
			c-0.464,0.378-0.924,0.757-1.383,1.137c-0.119,0.099-0.238,0.197-0.356,0.295c-0.483,0.403-0.962,0.808-1.439,1.214
			c-0.091,0.078-0.183,0.154-0.273,0.232c-0.549,0.469-1.095,0.941-1.635,1.415c-0.012,0.011-0.025,0.021-0.037,0.032
			c-1.701,1.492-3.357,3.005-4.963,4.536c-0.065,0.063-0.129,0.126-0.195,0.188c-0.454,0.434-0.904,0.87-1.349,1.307
			c-0.115,0.113-0.228,0.226-0.342,0.339c-0.395,0.39-0.787,0.781-1.174,1.174c-0.135,0.137-0.269,0.274-0.403,0.411
			c-0.362,0.369-0.721,0.739-1.077,1.111c-0.146,0.152-0.29,0.305-0.435,0.457c-0.342,0.361-0.682,0.723-1.018,1.085
			c-0.147,0.159-0.294,0.318-0.441,0.477c-0.332,0.362-0.66,0.724-0.986,1.089c-0.141,0.157-0.282,0.314-0.421,0.471
			c-0.33,0.372-0.655,0.745-0.978,1.119c-0.13,0.151-0.262,0.302-0.391,0.453c-0.336,0.392-0.667,0.787-0.995,1.182
			c-0.109,0.131-0.22,0.262-0.329,0.394c-0.377,0.457-0.747,0.916-1.114,1.377c-0.054,0.067-0.109,0.135-0.163,0.203
			c-0.861,1.087-1.694,2.181-2.496,3.285c-0.012,0.016-0.023,0.032-0.035,0.049c-0.377,0.519-0.747,1.04-1.11,1.562
			c-0.088,0.127-0.174,0.255-0.261,0.382c-0.284,0.413-0.566,0.827-0.842,1.243c-0.11,0.166-0.218,0.333-0.326,0.5
			c-0.248,0.379-0.494,0.759-0.734,1.141c-0.117,0.185-0.231,0.37-0.346,0.556c-0.226,0.364-0.449,0.729-0.668,1.094
			c-0.118,0.197-0.234,0.395-0.351,0.593c-0.21,0.357-0.416,0.715-0.619,1.074c-0.115,0.203-0.228,0.406-0.341,0.609
			c-0.198,0.358-0.392,0.717-0.583,1.076c-0.108,0.202-0.216,0.405-0.322,0.608c-0.191,0.368-0.377,0.737-0.561,1.106
			c-0.097,0.195-0.195,0.389-0.29,0.584c-0.188,0.387-0.37,0.775-0.55,1.163c-0.083,0.179-0.169,0.358-0.25,0.538
			c-0.197,0.434-0.386,0.87-0.572,1.306c-0.057,0.134-0.117,0.266-0.173,0.4c-0.484,1.154-0.932,2.314-1.342,3.481
			c-0.039,0.11-0.074,0.221-0.112,0.332c-0.16,0.466-0.317,0.932-0.466,1.401c-0.058,0.183-0.111,0.367-0.167,0.55
			c-0.122,0.398-0.242,0.796-0.355,1.196c-0.06,0.211-0.115,0.424-0.172,0.635c-0.1,0.372-0.199,0.745-0.291,1.118
			c-0.057,0.229-0.109,0.458-0.163,0.687c-0.084,0.359-0.166,0.719-0.242,1.079c-0.05,0.237-0.098,0.474-0.145,0.711
			c-0.071,0.356-0.138,0.712-0.201,1.069c-0.043,0.241-0.084,0.482-0.124,0.724c-0.058,0.357-0.111,0.714-0.162,1.072
			c-0.034,0.241-0.068,0.482-0.099,0.724c-0.046,0.363-0.086,0.728-0.125,1.092c-0.025,0.236-0.051,0.471-0.073,0.707
			c-0.035,0.382-0.062,0.765-0.088,1.149c-0.015,0.219-0.033,0.439-0.045,0.659c-0.024,0.425-0.038,0.853-0.05,1.279
			c-0.005,0.178-0.015,0.356-0.018,0.535c-0.023,1.217-0.003,2.441,0.064,3.671c0.009,0.171,0.025,0.343,0.036,0.514
			c0.028,0.441,0.059,0.882,0.099,1.325c0.021,0.227,0.048,0.454,0.072,0.681c0.041,0.389,0.082,0.779,0.132,1.169
			c0.032,0.248,0.07,0.497,0.105,0.746c0.053,0.371,0.108,0.742,0.169,1.113c0.043,0.26,0.091,0.52,0.138,0.78
			c0.066,0.363,0.134,0.727,0.208,1.091c0.054,0.265,0.111,0.531,0.17,0.797c0.079,0.362,0.163,0.723,0.25,1.085
			c0.065,0.268,0.131,0.535,0.2,0.804c0.094,0.364,0.193,0.729,0.296,1.095c0.074,0.266,0.149,0.533,0.228,0.799
			c0.11,0.371,0.227,0.742,0.345,1.113c0.084,0.263,0.166,0.525,0.254,0.789c0.129,0.385,0.267,0.772,0.405,1.158
			c0.089,0.249,0.175,0.497,0.268,0.746c0.16,0.429,0.332,0.859,0.504,1.289c0.083,0.207,0.161,0.414,0.246,0.621
			c0.256,0.62,0.523,1.241,0.804,1.864c0.008,0.018,0.016,0.037,0.024,0.056c0.29,0.641,0.595,1.284,0.911,1.928
			c0.102,0.207,0.212,0.414,0.316,0.621c0.22,0.437,0.442,0.875,0.675,1.313c0.134,0.251,0.275,0.503,0.413,0.755
			c0.217,0.397,0.434,0.793,0.661,1.19c0.154,0.269,0.315,0.539,0.473,0.809c0.223,0.379,0.448,0.759,0.681,1.14
			c0.172,0.281,0.349,0.562,0.526,0.843c0.235,0.373,0.473,0.747,0.717,1.12c0.186,0.284,0.375,0.569,0.566,0.854
			c0.25,0.373,0.504,0.746,0.764,1.12c0.198,0.285,0.398,0.571,0.601,0.856c0.268,0.377,0.543,0.755,0.821,1.133
			c0.208,0.283,0.416,0.565,0.629,0.848c0.289,0.384,0.587,0.769,0.886,1.154c0.216,0.278,0.43,0.556,0.651,0.835
			c0.318,0.4,0.647,0.802,0.977,1.203c0.215,0.262,0.426,0.524,0.646,0.786c0.373,0.445,0.758,0.891,1.144,1.337
			c0.19,0.22,0.374,0.439,0.567,0.659c0.586,0.667,1.185,1.334,1.802,2.003c0.292,0.316,0.609,0.612,0.938,0.897
			c0.148,0.129,0.305,0.25,0.46,0.373c0.172,0.135,0.346,0.266,0.526,0.393c0.213,0.152,0.429,0.302,0.653,0.444
			c0.099,0.062,0.203,0.118,0.303,0.178c0.694,0.414,1.422,0.795,2.205,1.112c3.383,0.342,6.831,0.642,10.362,0.887
			c1.58,0.11,3.105,0.075,4.585-0.045c0.483-0.051,0.978-0.096,1.457-0.15c5.014-0.675,9.267-2.671,12.039-5.806
			c31.582-35.709,27.901-68.1,7.509-95.886c34.083-24.72,77.86-42.614,100.24-50.864C403.967,85.004,405.6,84.632,407.173,84.459z"
			/>
	</g>
	<g>
		<path class="st11" d="M249.817,243.228C73.901,213.747,99.04,78.702,111.342,36.845c2.078-7.068,11.613-9.344,21.029-5.034
			c56.891,26.044,232.828,117.013,136.022,207.19C264.16,242.944,257.34,244.489,249.817,243.228z"/>
	</g>
	<g>
		<path class="st8" d="M143.795,37.178c-4.178-2.012-8.016-3.807-11.424-5.367c-9.416-4.31-18.951-2.034-21.029,5.034
			C99.04,78.702,73.901,213.747,249.817,243.228c7.523,1.261,14.343-0.284,18.576-4.228c4.041-3.764,7.597-7.53,10.716-11.293
			C127.305,199.009,132.422,88.832,143.795,37.178z"/>
	</g>
	<g>
		<path class="st6" d="M264.714,216.667c-1.716,0-3.42-0.732-4.606-2.152l-46.25-55.322c-2.125-2.542-1.787-6.326,0.755-8.452
			c2.542-2.125,6.327-1.787,8.452,0.755l46.25,55.322c2.125,2.542,1.787,6.326-0.755,8.452
			C267.437,216.209,266.071,216.667,264.714,216.667z"/>
	</g>
	<g>
		<circle class="st8" cx="162.649" cy="82.772" r="15"/>
	</g>
	<g>
		<path class="st11" d="M355,200.649c-2.455,0-4.759-1.519-5.643-3.961c-1.127-3.116,0.485-6.556,3.602-7.683
			c18.075-6.539,30.84-39.546,34.233-51.713c0.891-3.19,4.195-5.057,7.389-4.17c3.191,0.888,5.06,4.193,4.173,7.385
			c-0.563,2.029-14.119,49.801-41.713,59.783C356.367,200.533,355.678,200.649,355,200.649z"/>
	</g>
</g>
</svg>
